<?xml version="1.0" standalone="no"?>
<!DOCTYPE svg PUBLIC "-//W3C//DTD SVG 20010904//EN"
 "http://www.w3.org/TR/2001/REC-SVG-20010904/DTD/svg10.dtd">
<svg version="1.0" xmlns="http://www.w3.org/2000/svg"
 width="512.000000pt" height="512.000000pt" viewBox="0 0 512.000000 512.000000"
 preserveAspectRatio="xMidYMid meet">

<g transform="translate(0.000000,512.000000) scale(0.100000,-0.100000)"
fill="#000000" stroke="none">
<path d="M350 4259 c-60 -27 -107 -74 -136 -134 l-24 -50 0 -1282 c0 -1237 1
-1285 19 -1333 l19 -50 -89 0 c-83 0 -92 -2 -115 -26 l-26 -25 4 -167 c3 -163
4 -168 33 -221 32 -57 69 -91 128 -116 32 -13 300 -15 2397 -15 2097 0 2365 2
2397 15 59 25 96 59 128 116 29 53 30 58 33 221 l4 167 -26 25 c-23 24 -32 26
-115 26 l-89 0 19 50 c18 48 19 96 19 1333 0 1268 -1 1283 -21 1327 -27 60
-74 107 -134 136 l-50 24 -2165 0 c-2156 0 -2165 -1 -2210 -21z m4390 -114
c19 -12 43 -36 55 -55 20 -35 20 -48 23 -1290 l2 -1255 -22 -44 c-13 -25 -36
-54 -51 -65 l-28 -21 -2159 0 -2159 0 -28 21 c-15 11 -38 40 -50 64 l-23 44 0
1236 c0 781 4 1248 10 1270 5 19 20 48 32 63 49 60 -91 56 2233 54 2122 -2
2130 -2 2165 -22z m-2982 -2938 c20 -51 43 -94 62 -112 l31 -30 677 -3 c372
-2 691 0 709 3 55 10 89 49 124 141 l32 84 805 0 804 0 -4 -129 c-3 -122 -4
-131 -28 -156 -55 -59 124 -55 -2410 -55 -2534 0 -2355 -4 -2410 55 -24 25
-25 34 -28 156 l-4 129 804 0 805 0 31 -83z m1492 33 c-11 -28 -20 -53 -20
-55 0 -3 -301 -5 -670 -5 -368 0 -670 2 -670 5 0 2 -9 27 -20 55 l-20 50 710
0 710 0 -20 -50z"/>
</g>
</svg>
